<?xml version="1.0" encoding="UTF-8" standalone="no"?>
<!-- Created with Inkscape (http://www.inkscape.org/) -->
<svg
   xmlns:svg="http://www.w3.org/2000/svg"
   xmlns="http://www.w3.org/2000/svg"
   version="1.0"
   width="230"
   height="203"
   id="svg2211">
  <defs
     id="defs2214" />
  <g
     id="layer3" />
  <path
     d="M 79.250001,131.5 L 189.75,131.5"
     id="path2548"
     style="fill:none;fill-rule:evenodd;stroke:#b3b3b3;stroke-width:1px;stroke-linecap:butt;stroke-linejoin:miter;stroke-opacity:1" />
  <path
     d="M 93.559924,179 L 130.75,131.5 M 130.75,25.25 L 93.559924,67.5"
     id="path2550"
     style="fill:none;fill-rule:evenodd;stroke:#0000ff;stroke-width:1.79999995;stroke-linecap:butt;stroke-linejoin:miter;stroke-miterlimit:4;stroke-dasharray:none;stroke-opacity:1" />
  <path
     d="M 79.250001,25.25 L 79.250001,131.5 L 39,179"
     id="path2546"
     style="fill:none;fill-rule:evenodd;stroke:#999999;stroke-width:1px;stroke-linecap:butt;stroke-linejoin:miter;stroke-opacity:1" />
  <path
     d="M 155,179 L 39,179 L 39.500001,178.5 L 39,67.5 L 79.250001,25.25 L 189.75,25.25 L 189.75,131.5 L 155,179 z"
     id="path2538"
     style="fill:none;fill-rule:evenodd;stroke:#000000;stroke-width:2;stroke-linecap:butt;stroke-linejoin:miter;stroke-miterlimit:4;stroke-dasharray:none;stroke-opacity:1" />
  <path
     d="M 39,67.5 L 155,67.5 L 189.75,25.25"
     id="path2540"
     style="fill:none;fill-rule:evenodd;stroke:#000000;stroke-width:2;stroke-linecap:butt;stroke-linejoin:miter;stroke-miterlimit:4;stroke-dasharray:none;stroke-opacity:1" />
  <path
     d="M 155,67.5 L 155,179"
     id="path2544"
     style="fill:none;fill-rule:evenodd;stroke:#000000;stroke-width:2;stroke-linecap:butt;stroke-linejoin:miter;stroke-miterlimit:4;stroke-dasharray:none;stroke-opacity:1" />
  <path
     d="M 114.5,42.767498 L 114.5,152.3575"
     id="path2552"
     style="fill:none;fill-rule:evenodd;stroke:#0000ff;stroke-width:1.79999995;stroke-linecap:butt;stroke-linejoin:miter;stroke-miterlimit:4;stroke-dasharray:none;stroke-opacity:1" />
  <g
     transform="translate(307.8686,159.82025)"
     id="g3358"
     style="opacity:1">
    <path
       d="M -294.21902,-93.928073 L -294.21902,-92.680026 C -294.61746,-93.051113 -295.04226,-93.328456 -295.49343,-93.512057 C -295.94461,-93.695643 -296.4241,-93.78744 -296.93191,-93.787448 C -297.93191,-93.78744 -298.69753,-93.481776 -299.22878,-92.870456 C -299.76003,-92.259121 -300.02566,-91.375333 -300.02566,-90.219088 C -300.02566,-89.066742 -299.76003,-88.184906 -299.22878,-87.573581 C -298.69753,-86.962251 -297.93191,-86.656588 -296.93191,-86.656588 C -296.4241,-86.656588 -295.94461,-86.748384 -295.49343,-86.931979 C -295.04226,-87.115572 -294.61746,-87.392915 -294.21902,-87.76401 L -294.21902,-86.527682 C -294.63308,-86.246432 -295.07156,-86.035495 -295.53444,-85.89487 C -295.99734,-85.754245 -296.4866,-85.683932 -297.00222,-85.683932 C -298.32644,-85.683932 -299.36941,-86.089205 -300.13112,-86.899753 C -300.89284,-87.710298 -301.2737,-88.816742 -301.2737,-90.219088 C -301.2737,-91.625333 -300.89284,-92.73373 -300.13112,-93.544284 C -299.36941,-94.354822 -298.32644,-94.760095 -297.00222,-94.760104 C -296.47879,-94.760095 -295.98562,-94.690759 -295.52273,-94.552096 C -295.05984,-94.413416 -294.62527,-94.205408 -294.21902,-93.928073 L -294.21902,-93.928073 z"
       id="path3326" />
    <path
       d="M -291.20689,-86.741541 C -291.7147,-86.741534 -292.09637,-86.491697 -292.35191,-85.992029 C -292.60744,-85.492349 -292.73521,-84.741211 -292.73521,-83.738611 C -292.73521,-82.73926 -292.60744,-81.989749 -292.35191,-81.490076 C -292.09637,-80.990401 -291.7147,-80.740564 -291.20689,-80.740564 C -290.69582,-80.740564 -290.31252,-80.990401 -290.05698,-81.490076 C -289.80145,-81.989749 -289.67369,-82.73926 -289.67368,-83.738611 C -289.67369,-84.741211 -289.80145,-85.492349 -290.05698,-85.992029 C -290.31252,-86.491697 -290.69582,-86.741534 -291.20689,-86.741541 L -291.20689,-86.741541 z M -291.20689,-87.522791 C -290.38983,-87.522784 -289.76565,-87.199704 -289.33433,-86.553553 C -288.90302,-85.907388 -288.68736,-84.969075 -288.68736,-83.738611 C -288.68736,-82.511395 -288.90302,-81.57471 -289.33433,-80.928553 C -289.76565,-80.282394 -290.38983,-79.959315 -291.20689,-79.959314 C -292.02395,-79.959315 -292.64813,-80.282394 -293.07944,-80.928553 C -293.51076,-81.57471 -293.72642,-82.511395 -293.72642,-83.738611 C -293.72642,-84.969075 -293.51076,-85.907388 -293.07944,-86.553553 C -292.64813,-87.199704 -292.02395,-87.522784 -291.20689,-87.522791 L -291.20689,-87.522791 z M -284.8397,-86.741541 C -285.34751,-86.741534 -285.72919,-86.491697 -285.98472,-85.992029 C -286.24025,-85.492349 -286.36802,-84.741211 -286.36802,-83.738611 C -286.36802,-82.73926 -286.24025,-81.989749 -285.98472,-81.490076 C -285.72919,-80.990401 -285.34751,-80.740564 -284.8397,-80.740564 C -284.32864,-80.740564 -283.94533,-80.990401 -283.6898,-81.490076 C -283.43427,-81.989749 -283.3065,-82.73926 -283.3065,-83.738611 C -283.3065,-84.741211 -283.43427,-85.492349 -283.6898,-85.992029 C -283.94533,-86.491697 -284.32864,-86.741534 -284.8397,-86.741541 L -284.8397,-86.741541 z M -284.8397,-87.522791 C -284.02265,-87.522784 -283.39846,-87.199704 -282.96714,-86.553553 C -282.53583,-85.907388 -282.32017,-84.969075 -282.32017,-83.738611 C -282.32017,-82.511395 -282.53583,-81.57471 -282.96714,-80.928553 C -283.39846,-80.282394 -284.02265,-79.959315 -284.8397,-79.959314 C -285.65676,-79.959315 -286.28094,-80.282394 -286.71226,-80.928553 C -287.14357,-81.57471 -287.35923,-82.511395 -287.35923,-83.738611 C -287.35923,-84.969075 -287.14357,-85.907388 -286.71226,-86.553553 C -286.28094,-87.199704 -285.65676,-87.522784 -284.8397,-87.522791 L -284.8397,-87.522791 z M -280.41099,-80.930994 L -278.79966,-80.930994 L -278.79966,-86.492517 L -280.55259,-86.140955 L -280.55259,-87.039392 L -278.80943,-87.390955 L -277.8231,-87.390955 L -277.8231,-80.930994 L -276.21177,-80.930994 L -276.21177,-80.100916 L -280.41099,-80.100916 L -280.41099,-80.930994 z"
       id="path3328" />
    <path
       d="M -167.54032,-152.94491 L -167.54032,-151.69686 C -167.93876,-152.06795 -168.36356,-152.34529 -168.81473,-152.52889 C -169.26591,-152.71248 -169.7454,-152.80427 -170.25321,-152.80428 C -171.25321,-152.80427 -172.01883,-152.49861 -172.55008,-151.88729 C -173.08133,-151.27595 -173.34696,-150.39217 -173.34696,-149.23592 C -173.34696,-148.08358 -173.08133,-147.20174 -172.55008,-146.59041 C -172.01883,-145.97908 -171.25321,-145.67342 -170.25321,-145.67342 C -169.7454,-145.67342 -169.26591,-145.76522 -168.81473,-145.94881 C -168.36356,-146.13241 -167.93876,-146.40975 -167.54032,-146.78084 L -167.54032,-145.54452 C -167.95438,-145.26327 -168.39286,-145.05233 -168.85574,-144.9117 C -169.31864,-144.77108 -169.8079,-144.70077 -170.32352,-144.70077 C -171.64774,-144.70077 -172.69071,-145.10604 -173.45242,-145.91659 C -174.21414,-146.72713 -174.595,-147.83358 -174.595,-149.23592 C -174.595,-150.64217 -174.21414,-151.75056 -173.45242,-152.56112 C -172.69071,-153.37166 -171.64774,-153.77693 -170.32352,-153.77694 C -169.80009,-153.77693 -169.30692,-153.70759 -168.84403,-153.56893 C -168.38114,-153.43025 -167.94657,-153.22224 -167.54032,-152.94491 L -167.54032,-152.94491 z"
       id="path3330"
       style="fill:#0000ff;fill-opacity:1" />
    <path
       d="M -165.05886,-141.42148 L -163.44753,-141.42148 L -163.44753,-146.98301 L -165.20046,-146.63144 L -165.20046,-147.52988 L -163.45729,-147.88144 L -162.47096,-147.88144 L -162.47096,-141.42148 L -160.85964,-141.42148 L -160.85964,-140.59141 L -165.05886,-140.59141 L -165.05886,-141.42148 z M -158.69167,-141.42148 L -157.08034,-141.42148 L -157.08034,-146.98301 L -158.83327,-146.63144 L -158.83327,-147.52988 L -157.09011,-147.88144 L -156.10378,-147.88144 L -156.10378,-141.42148 L -154.49245,-141.42148 L -154.49245,-140.59141 L -158.69167,-140.59141 L -158.69167,-141.42148 z"
       id="path3332"
       style="font-size:10px;fill:#0000ff;fill-opacity:1" />
    <path
       d="M -108.05481,-150.00288 L -108.05481,-148.75483 C -108.45325,-149.12592 -108.87806,-149.40326 -109.32922,-149.58686 C -109.7804,-149.77045 -110.25989,-149.86224 -110.7677,-149.86225 C -111.7677,-149.86224 -112.53333,-149.55658 -113.06457,-148.94526 C -113.59583,-148.33393 -113.86145,-147.45014 -113.86145,-146.29389 C -113.86145,-145.14155 -113.59583,-144.25971 -113.06457,-143.64839 C -112.53333,-143.03706 -111.7677,-142.73139 -110.7677,-142.73139 C -110.25989,-142.73139 -109.7804,-142.82319 -109.32922,-143.00678 C -108.87806,-143.19038 -108.45325,-143.46772 -108.05481,-143.83881 L -108.05481,-142.60249 C -108.46888,-142.32124 -108.90735,-142.1103 -109.37024,-141.96967 C -109.83313,-141.82905 -110.32239,-141.75874 -110.83801,-141.75874 C -112.16223,-141.75874 -113.2052,-142.16401 -113.96692,-142.97456 C -114.72864,-143.7851 -115.1095,-144.89155 -115.1095,-146.29389 C -115.1095,-147.70014 -114.72864,-148.80853 -113.96692,-149.61909 C -113.2052,-150.42963 -112.16223,-150.8349 -110.83801,-150.83491 C -110.31458,-150.8349 -109.82142,-150.76556 -109.35852,-150.6269 C -108.89564,-150.48822 -108.46107,-150.28021 -108.05481,-150.00288 L -108.05481,-150.00288 z"
       id="path3334" />
    <path
       d="M -104.8181,-144.83011 C -104.53686,-145.11135 -104.38061,-145.42385 -104.34935,-145.76761 L -103.78685,-145.76761 L -103.78685,-137.65824 L -104.86498,-137.65824 L -104.86498,-143.89261 L -106.27123,-143.89261 L -106.27123,-144.45511 L -105.84935,-144.45511 C -105.41186,-144.4551 -105.06811,-144.5801 -104.8181,-144.83011 L -104.8181,-144.83011 z M -98.818103,-144.83011 C -98.536863,-145.11135 -98.380613,-145.42385 -98.349353,-145.76761 L -97.786853,-145.76761 L -97.786853,-137.65824 L -98.864983,-137.65824 L -98.864983,-143.89261 L -100.27123,-143.89261 L -100.27123,-144.45511 L -99.849353,-144.45511 C -99.411863,-144.4551 -99.068113,-144.5801 -98.818103,-144.83011 L -98.818103,-144.83011 z M -92.818103,-144.83011 C -92.536863,-145.11135 -92.380613,-145.42385 -92.349353,-145.76761 L -91.786853,-145.76761 L -91.786853,-137.65824 L -92.864983,-137.65824 L -92.864983,-143.89261 L -94.271233,-143.89261 L -94.271233,-144.45511 L -93.849353,-144.45511 C -93.411863,-144.4551 -93.068113,-144.5801 -92.818103,-144.83011 L -92.818103,-144.83011 z"
       id="path3336"
       style="font-size:12px;font-style:normal;font-weight:normal;fill:#000000;fill-opacity:1;stroke:none;stroke-width:1px;stroke-linecap:butt;stroke-linejoin:miter;stroke-opacity:1;font-family:MS UI Gothic" />
    <path
       d="M -164.2441,37.921821 L -162.63277,37.921821 L -162.63277,32.360291 L -164.3857,32.711861 L -164.3857,31.813421 L -162.64253,31.461861 L -161.6562,31.461861 L -161.6562,37.921821 L -160.04488,37.921821 L -160.04488,38.751891 L -164.2441,38.751891 L -164.2441,37.921821 z M -155.93843,32.111271 C -156.44625,32.111281 -156.82792,32.361111 -157.08345,32.860781 C -157.33899,33.360461 -157.46675,34.111601 -157.46675,35.114201 C -157.46675,36.113551 -157.33899,36.863061 -157.08345,37.362731 C -156.82792,37.862411 -156.44625,38.112251 -155.93843,38.112251 C -155.42737,38.112251 -155.04407,37.862411 -154.78853,37.362731 C -154.533,36.863061 -154.40523,36.113551 -154.40523,35.114201 C -154.40523,34.111601 -154.533,33.360461 -154.78853,32.860781 C -155.04407,32.361111 -155.42737,32.111281 -155.93843,32.111271 L -155.93843,32.111271 z M -155.93843,31.330021 C -155.12138,31.330031 -154.49719,31.653111 -154.06587,32.299261 C -153.63456,32.945421 -153.41891,33.883731 -153.4189,35.114201 C -153.41891,36.341411 -153.63456,37.278101 -154.06587,37.924261 C -154.49719,38.570421 -155.12138,38.893501 -155.93843,38.893501 C -156.75549,38.893501 -157.37968,38.570421 -157.81099,37.924261 C -158.24231,37.278101 -158.45796,36.341411 -158.45796,35.114201 C -158.45796,33.883731 -158.24231,32.945421 -157.81099,32.299261 C -157.37968,31.653111 -156.75549,31.330031 -155.93843,31.330021 L -155.93843,31.330021 z M -149.57124,32.111271 C -150.07906,32.111281 -150.46073,32.361111 -150.71626,32.860781 C -150.9718,33.360461 -151.09957,34.111601 -151.09956,35.114201 C -151.09957,36.113551 -150.9718,36.863061 -150.71626,37.362731 C -150.46073,37.862411 -150.07906,38.112251 -149.57124,38.112251 C -149.06018,38.112251 -148.67688,37.862411 -148.42134,37.362731 C -148.16581,36.863061 -148.03805,36.113551 -148.03804,35.114201 C -148.03805,34.111601 -148.16581,33.360461 -148.42134,32.860781 C -148.67688,32.361111 -149.06018,32.111281 -149.57124,32.111271 L -149.57124,32.111271 z M -149.57124,31.330021 C -148.75419,31.330031 -148.13001,31.653111 -147.69869,32.299261 C -147.26738,32.945421 -147.05172,33.883731 -147.05171,35.114201 C -147.05172,36.341411 -147.26738,37.278101 -147.69869,37.924261 C -148.13001,38.570421 -148.75419,38.893501 -149.57124,38.893501 C -150.3883,38.893501 -151.01249,38.570421 -151.4438,37.924261 C -151.87512,37.278101 -152.09078,36.341411 -152.09078,35.114201 C -152.09078,33.883731 -151.87512,32.945421 -151.4438,32.299261 C -151.01249,31.653111 -150.3883,31.330031 -149.57124,31.330021 L -149.57124,31.330021 z"
       id="path3338" />
    <path
       d="M -282.57655,21.622121 L -282.57655,22.870171 C -282.975,22.499081 -283.3998,22.221741 -283.85096,22.038141 C -284.30214,21.854551 -284.78163,21.762761 -285.28944,21.762751 C -286.28945,21.762761 -287.05507,22.068421 -287.58632,22.679741 C -288.11757,23.291081 -288.38319,24.174861 -288.38319,25.331111 C -288.38319,26.483461 -288.11757,27.365291 -287.58632,27.976621 C -287.05507,28.587951 -286.28945,28.893611 -285.28944,28.893611 C -284.78163,28.893611 -284.30214,28.801811 -283.85096,28.618221 C -283.3998,28.434631 -282.975,28.157281 -282.57655,27.786191 L -282.57655,29.022521 C -282.99062,29.303771 -283.4291,29.514701 -283.89198,29.655331 C -284.35488,29.795951 -284.84413,29.866271 -285.35975,29.866271 C -286.68398,29.866271 -287.72694,29.460991 -288.48866,28.650441 C -289.25038,27.839901 -289.63124,26.733461 -289.63124,25.331111 C -289.63124,23.924861 -289.25038,22.816471 -288.48866,22.005911 C -287.72694,21.195381 -286.68398,20.790101 -285.35975,20.790091 C -284.83632,20.790101 -284.34316,20.859441 -283.88026,20.998101 C -283.41738,21.136781 -282.98281,21.344791 -282.57655,21.622121 L -282.57655,21.622121 z"
       id="path3340" />
    <path
       d="M -278.87038,28.799221 C -279.3782,28.799231 -279.75987,29.049061 -280.0154,29.548731 C -280.27094,30.048411 -280.3987,30.799551 -280.3987,31.802151 C -280.3987,32.801501 -280.27094,33.551011 -280.0154,34.050681 C -279.75987,34.550361 -279.3782,34.800201 -278.87038,34.800201 C -278.35932,34.800201 -277.97602,34.550361 -277.72048,34.050681 C -277.46495,33.551011 -277.33718,32.801501 -277.33718,31.802151 C -277.33718,30.799551 -277.46495,30.048411 -277.72048,29.548731 C -277.97602,29.049061 -278.35932,28.799231 -278.87038,28.799221 L -278.87038,28.799221 z M -278.87038,28.017971 C -278.05333,28.017981 -277.42914,28.341061 -276.99782,28.987211 C -276.56651,29.633371 -276.35086,30.571681 -276.35085,31.802151 C -276.35086,33.029361 -276.56651,33.966051 -276.99782,34.612211 C -277.42914,35.258371 -278.05333,35.581451 -278.87038,35.581451 C -279.68744,35.581451 -280.31163,35.258371 -280.74294,34.612211 C -281.17426,33.966051 -281.38991,33.029361 -281.38991,31.802151 C -281.38991,30.571681 -281.17426,29.633371 -280.74294,28.987211 C -280.31163,28.341061 -279.68744,28.017981 -278.87038,28.017971 L -278.87038,28.017971 z M -272.5032,28.799221 C -273.01101,28.799231 -273.39268,29.049061 -273.64821,29.548731 C -273.90375,30.048411 -274.03152,30.799551 -274.03152,31.802151 C -274.03152,32.801501 -273.90375,33.551011 -273.64821,34.050681 C -273.39268,34.550361 -273.01101,34.800201 -272.5032,34.800201 C -271.99213,34.800201 -271.60883,34.550361 -271.35329,34.050681 C -271.09776,33.551011 -270.97,32.801501 -270.96999,31.802151 C -270.97,30.799551 -271.09776,30.048411 -271.35329,29.548731 C -271.60883,29.049061 -271.99213,28.799231 -272.5032,28.799221 L -272.5032,28.799221 z M -272.5032,28.017971 C -271.68614,28.017981 -271.06196,28.341061 -270.63064,28.987211 C -270.19933,29.633371 -269.98367,30.571681 -269.98366,31.802151 C -269.98367,33.029361 -270.19933,33.966051 -270.63064,34.612211 C -271.06196,35.258371 -271.68614,35.581451 -272.5032,35.581451 C -273.32025,35.581451 -273.94444,35.258371 -274.37575,34.612211 C -274.80707,33.966051 -275.02273,33.029361 -275.02273,31.802151 C -275.02273,30.571681 -274.80707,29.633371 -274.37575,28.987211 C -273.94444,28.341061 -273.32025,28.017981 -272.5032,28.017971 L -272.5032,28.017971 z M -266.13601,28.799221 C -266.64382,28.799231 -267.0255,29.049061 -267.28103,29.548731 C -267.53656,30.048411 -267.66433,30.799551 -267.66433,31.802151 C -267.66433,32.801501 -267.53656,33.551011 -267.28103,34.050681 C -267.0255,34.550361 -266.64382,34.800201 -266.13601,34.800201 C -265.62494,34.800201 -265.24164,34.550361 -264.98611,34.050681 C -264.73058,33.551011 -264.60281,32.801501 -264.6028,31.802151 C -264.60281,30.799551 -264.73058,30.048411 -264.98611,29.548731 C -265.24164,29.049061 -265.62494,28.799231 -266.13601,28.799221 L -266.13601,28.799221 z M -266.13601,28.017971 C -265.31895,28.017981 -264.69477,28.341061 -264.26345,28.987211 C -263.83214,29.633371 -263.61648,30.571681 -263.61648,31.802151 C -263.61648,33.029361 -263.83214,33.966051 -264.26345,34.612211 C -264.69477,35.258371 -265.31895,35.581451 -266.13601,35.581451 C -266.95307,35.581451 -267.57725,35.258371 -268.00857,34.612211 C -268.43988,33.966051 -268.65554,33.029361 -268.65554,31.802151 C -268.65554,30.571681 -268.43988,29.633371 -268.00857,28.987211 C -267.57725,28.341061 -266.95307,28.017981 -266.13601,28.017971 L -266.13601,28.017971 z"
       id="path3342" />
    <path
       d="M -217.48416,27.873931 L -217.48416,29.121981 C -217.8826,28.750891 -218.30741,28.473551 -218.75857,28.289951 C -219.20975,28.106361 -219.68924,28.014571 -220.19705,28.014561 C -221.19705,28.014571 -221.96268,28.320231 -222.49392,28.931551 C -223.02518,29.542891 -223.2908,30.426671 -223.2908,31.582921 C -223.2908,32.735261 -223.02518,33.617101 -222.49392,34.228431 C -221.96268,34.839761 -221.19705,35.145421 -220.19705,35.145421 C -219.68924,35.145421 -219.20975,35.053621 -218.75857,34.870031 C -218.30741,34.686431 -217.8826,34.409091 -217.48416,34.038001 L -217.48416,35.274321 C -217.89823,35.555571 -218.33671,35.766511 -218.79959,35.907141 C -219.26249,36.047761 -219.75174,36.118071 -220.26736,36.118071 C -221.59158,36.118071 -222.63455,35.712801 -223.39627,34.902251 C -224.15799,34.091711 -224.53885,32.985261 -224.53885,31.582921 C -224.53885,30.176671 -224.15799,29.068281 -223.39627,28.257721 C -222.63455,27.447181 -221.59158,27.041911 -220.26736,27.041901 C -219.74393,27.041911 -219.25077,27.111251 -218.78787,27.249911 C -218.32499,27.388591 -217.89042,27.596601 -217.48416,27.873931 L -217.48416,27.873931 z"
       id="path3344"
       style="fill:#0000ff;fill-opacity:1" />
    <path
       d="M -213.77663,33.580471 C -214.28445,33.580481 -214.66612,33.830311 -214.92165,34.329981 C -215.17719,34.829661 -215.30495,35.580801 -215.30495,36.583401 C -215.30495,37.582751 -215.17719,38.332261 -214.92165,38.831931 C -214.66612,39.331611 -214.28445,39.581451 -213.77663,39.581451 C -213.26557,39.581451 -212.88227,39.331611 -212.62673,38.831931 C -212.3712,38.332261 -212.24343,37.582751 -212.24343,36.583401 C -212.24343,35.580801 -212.3712,34.829661 -212.62673,34.329981 C -212.88227,33.830311 -213.26557,33.580481 -213.77663,33.580471 L -213.77663,33.580471 z M -213.77663,32.799221 C -212.95958,32.799231 -212.33539,33.122311 -211.90407,33.768461 C -211.47276,34.414621 -211.25711,35.352931 -211.2571,36.583401 C -211.25711,37.810611 -211.47276,38.747301 -211.90407,39.393461 C -212.33539,40.039621 -212.95958,40.362701 -213.77663,40.362701 C -214.59369,40.362701 -215.21788,40.039621 -215.64919,39.393461 C -216.08051,38.747301 -216.29616,37.810611 -216.29616,36.583401 C -216.29616,35.352931 -216.08051,34.414621 -215.64919,33.768461 C -215.21788,33.122311 -214.59369,32.799231 -213.77663,32.799221 L -213.77663,32.799221 z M -207.40945,33.580471 C -207.91726,33.580481 -208.29893,33.830311 -208.55446,34.329981 C -208.81,34.829661 -208.93777,35.580801 -208.93777,36.583401 C -208.93777,37.582751 -208.81,38.332261 -208.55446,38.831931 C -208.29893,39.331611 -207.91726,39.581451 -207.40945,39.581451 C -206.89838,39.581451 -206.51508,39.331611 -206.25954,38.831931 C -206.00401,38.332261 -205.87624,37.582751 -205.87624,36.583401 C -205.87624,35.580801 -206.00401,34.829661 -206.25954,34.329981 C -206.51508,33.830311 -206.89838,33.580481 -207.40945,33.580471 L -207.40945,33.580471 z M -207.40945,32.799221 C -206.59239,32.799231 -205.9682,33.122311 -205.53688,33.768461 C -205.10557,34.414621 -204.88992,35.352931 -204.88991,36.583401 C -204.88992,37.810611 -205.10557,38.747301 -205.53688,39.393461 C -205.9682,40.039621 -206.59239,40.362701 -207.40945,40.362701 C -208.2265,40.362701 -208.85069,40.039621 -209.282,39.393461 C -209.71332,38.747301 -209.92898,37.810611 -209.92898,36.583401 C -209.92898,35.352931 -209.71332,34.414621 -209.282,33.768461 C -208.85069,33.122311 -208.2265,32.799231 -207.40945,32.799221 L -207.40945,32.799221 z"
       id="path3346"
       style="font-size:10px;fill:#0000ff;fill-opacity:1;stroke:none" />
    <path
       d="M -174.45698,-50.296359 L -174.45698,-49.048309 C -174.85543,-49.419399 -175.28023,-49.696739 -175.7314,-49.880339 C -176.18257,-50.063929 -176.66207,-50.155719 -177.16987,-50.155729 C -178.16988,-50.155719 -178.9355,-49.850059 -179.46675,-49.238739 C -179.998,-48.627399 -180.26362,-47.743619 -180.26362,-46.587369 C -180.26362,-45.435029 -179.998,-44.553189 -179.46675,-43.941859 C -178.9355,-43.330529 -178.16988,-43.024869 -177.16987,-43.024869 C -176.66207,-43.024869 -176.18257,-43.116669 -175.7314,-43.300259 C -175.28023,-43.483859 -174.85543,-43.761199 -174.45698,-44.132289 L -174.45698,-42.895969 C -174.87105,-42.614719 -175.30953,-42.403779 -175.77241,-42.263149 C -176.23531,-42.122529 -176.72457,-42.052219 -177.24018,-42.052219 C -178.56441,-42.052219 -179.60737,-42.457489 -180.36909,-43.268039 C -181.13081,-44.078579 -181.51167,-45.185029 -181.51167,-46.587369 C -181.51167,-47.993619 -181.13081,-49.102009 -180.36909,-49.912569 C -179.60737,-50.723109 -178.56441,-51.128379 -177.24018,-51.128389 C -176.71675,-51.128379 -176.22359,-51.059039 -175.76069,-50.920379 C -175.29781,-50.781699 -174.86324,-50.573689 -174.45698,-50.296359 L -174.45698,-50.296359 z"
       id="path3348"
       style="fill:#0000ff;fill-opacity:1" />
    <path
       d="M -172.68386,-35.483979 L -171.07253,-35.483979 L -171.07253,-41.045509 L -172.82546,-40.693939 L -172.82546,-41.592379 L -171.08229,-41.943939 L -170.09596,-41.943939 L -170.09596,-35.483979 L -168.48464,-35.483979 L -168.48464,-34.653909 L -172.68386,-34.653909 L -172.68386,-35.483979 z M -164.37819,-41.294529 C -164.88601,-41.294519 -165.26768,-41.044689 -165.52321,-40.545019 C -165.77875,-40.045339 -165.90651,-39.294199 -165.90651,-38.291599 C -165.90651,-37.292249 -165.77875,-36.542739 -165.52321,-36.043069 C -165.26768,-35.543389 -164.88601,-35.293549 -164.37819,-35.293549 C -163.86713,-35.293549 -163.48383,-35.543389 -163.22829,-36.043069 C -162.97276,-36.542739 -162.84499,-37.292249 -162.84499,-38.291599 C -162.84499,-39.294199 -162.97276,-40.045339 -163.22829,-40.545019 C -163.48383,-41.044689 -163.86713,-41.294519 -164.37819,-41.294529 L -164.37819,-41.294529 z M -164.37819,-42.075779 C -163.56114,-42.075769 -162.93695,-41.752689 -162.50563,-41.106539 C -162.07432,-40.460379 -161.85867,-39.522069 -161.85866,-38.291599 C -161.85867,-37.064389 -162.07432,-36.127699 -162.50563,-35.481539 C -162.93695,-34.835379 -163.56114,-34.512299 -164.37819,-34.512299 C -165.19525,-34.512299 -165.81944,-34.835379 -166.25075,-35.481539 C -166.68207,-36.127699 -166.89772,-37.064389 -166.89772,-38.291599 C -166.89772,-39.522069 -166.68207,-40.460379 -166.25075,-41.106539 C -165.81944,-41.752689 -165.19525,-42.075769 -164.37819,-42.075779 L -164.37819,-42.075779 z"
       id="path3350"
       style="fill:#0000ff;fill-opacity:1" />
    <path
       d="M -201.29809,-60.55396 L -201.29809,-59.30591 C -201.69653,-59.677 -202.12133,-59.95434 -202.5725,-60.13794 C -203.02368,-60.32153 -203.50317,-60.41332 -204.01098,-60.41333 C -205.01098,-60.41332 -205.7766,-60.10766 -206.30785,-59.49634 C -206.8391,-58.885 -207.10473,-58.00122 -207.10473,-56.84497 C -207.10473,-55.69263 -206.8391,-54.81079 -206.30785,-54.19946 C -205.7766,-53.58813 -205.01098,-53.28247 -204.01098,-53.28247 C -203.50317,-53.28247 -203.02368,-53.37427 -202.5725,-53.55786 C -202.12133,-53.74146 -201.69653,-54.0188 -201.29809,-54.38989 L -201.29809,-53.15357 C -201.71216,-52.87232 -202.15063,-52.66138 -202.61352,-52.52075 C -203.07641,-52.38013 -203.56567,-52.30982 -204.08129,-52.30982 C -205.40551,-52.30982 -206.44848,-52.71509 -207.21019,-53.52564 C -207.97192,-54.33618 -208.35278,-55.44263 -208.35278,-56.84497 C -208.35278,-58.25122 -207.97192,-59.35961 -207.21019,-60.17017 C -206.44848,-60.98071 -205.40551,-61.38598 -204.08129,-61.38599 C -203.55786,-61.38598 -203.06469,-61.31664 -202.6018,-61.17798 C -202.13891,-61.0393 -201.70434,-60.83129 -201.29809,-60.55396 L -201.29809,-60.55396 z"
       id="path3352"
       style="fill:#ff0000;fill-opacity:1" />
    <path
       d="M -235.04938,-84.83621 L -235.04938,-83.588163 C -235.44782,-83.95925 -235.87263,-84.236593 -236.32379,-84.420194 C -236.77497,-84.60378 -237.25446,-84.695577 -237.76227,-84.695585 C -238.76227,-84.695577 -239.52789,-84.389913 -240.05914,-83.778593 C -240.59039,-83.167258 -240.85602,-82.28347 -240.85602,-81.127225 C -240.85602,-79.974879 -240.59039,-79.093043 -240.05914,-78.481718 C -239.52789,-77.870388 -238.76227,-77.564725 -237.76227,-77.564725 C -237.25446,-77.564725 -236.77497,-77.656521 -236.32379,-77.840116 C -235.87263,-78.023709 -235.44782,-78.301052 -235.04938,-78.672147 L -235.04938,-77.435819 C -235.46345,-77.154569 -235.90192,-76.943632 -236.36481,-76.803007 C -236.8277,-76.662382 -237.31696,-76.592069 -237.83258,-76.592069 C -239.1568,-76.592069 -240.19977,-76.997342 -240.96149,-77.80789 C -241.72321,-78.618435 -242.10406,-79.724879 -242.10406,-81.127225 C -242.10406,-82.53347 -241.72321,-83.641867 -240.96149,-84.452421 C -240.19977,-85.262959 -239.1568,-85.668232 -237.83258,-85.668241 C -237.30915,-85.668232 -236.81598,-85.598896 -236.35309,-85.460233 C -235.8902,-85.321553 -235.45563,-85.113545 -235.04938,-84.83621 L -235.04938,-84.83621 z"
       id="path3354"
       style="fill:#0000ff;fill-opacity:1" />
    <path
       d="M -231.72183,-77.665001 C -232.22965,-77.664994 -232.61132,-77.415157 -232.86685,-76.915489 C -233.12239,-76.415809 -233.25015,-75.664671 -233.25015,-74.662071 C -233.25015,-73.66272 -233.12239,-72.913209 -232.86685,-72.413536 C -232.61132,-71.913861 -232.22965,-71.664024 -231.72183,-71.664024 C -231.21077,-71.664024 -230.82747,-71.913861 -230.57193,-72.413536 C -230.3164,-72.913209 -230.18863,-73.66272 -230.18863,-74.662071 C -230.18863,-75.664671 -230.3164,-76.415809 -230.57193,-76.915489 C -230.82747,-77.415157 -231.21077,-77.664994 -231.72183,-77.665001 L -231.72183,-77.665001 z M -231.72183,-78.446251 C -230.90478,-78.446244 -230.28059,-78.123164 -229.84927,-77.477013 C -229.41796,-76.830848 -229.20231,-75.892535 -229.2023,-74.662071 C -229.20231,-73.434855 -229.41796,-72.49817 -229.84927,-71.852013 C -230.28059,-71.205854 -230.90478,-70.882775 -231.72183,-70.882774 C -232.53889,-70.882775 -233.16308,-71.205854 -233.59439,-71.852013 C -234.02571,-72.49817 -234.24136,-73.434855 -234.24136,-74.662071 C -234.24136,-75.892535 -234.02571,-76.830848 -233.59439,-77.477013 C -233.16308,-78.123164 -232.53889,-78.446244 -231.72183,-78.446251 L -231.72183,-78.446251 z M -227.29312,-71.854454 L -225.68179,-71.854454 L -225.68179,-77.415977 L -227.43472,-77.064415 L -227.43472,-77.962852 L -225.69156,-78.314415 L -224.70523,-78.314415 L -224.70523,-71.854454 L -223.0939,-71.854454 L -223.0939,-71.024376 L -227.29312,-71.024376 L -227.29312,-71.854454 z"
       id="path3356"
       style="fill:#0000ff;fill-opacity:1" />
    <path
       d="M -206.10333,-129.89079 L -206.10333,-128.64274 C -206.50177,-129.01383 -206.92658,-129.29117 -207.37774,-129.47477 C -207.82892,-129.65836 -208.30841,-129.75015 -208.81622,-129.75016 C -209.81622,-129.75015 -210.58185,-129.44449 -211.11309,-128.83317 C -211.64435,-128.22184 -211.90997,-127.33805 -211.90997,-126.1818 C -211.90997,-125.02946 -211.64435,-124.14762 -211.11309,-123.5363 C -210.58185,-122.92497 -209.81622,-122.6193 -208.81622,-122.6193 C -208.30841,-122.6193 -207.82892,-122.7111 -207.37774,-122.89469 C -206.92658,-123.07829 -206.50177,-123.35563 -206.10333,-123.72672 L -206.10333,-122.4904 C -206.5174,-122.20915 -206.95587,-121.99821 -207.41876,-121.85758 C -207.88165,-121.71696 -208.37091,-121.64665 -208.88653,-121.64665 C -210.21075,-121.64665 -211.25372,-122.05192 -212.01544,-122.86247 C -212.77716,-123.67301 -213.15802,-124.77946 -213.15802,-126.1818 C -213.15802,-127.58805 -212.77716,-128.69644 -212.01544,-129.507 C -211.25372,-130.31754 -210.21075,-130.72281 -208.88653,-130.72282 C -208.3631,-130.72281 -207.86994,-130.65347 -207.40704,-130.51481 C -206.94416,-130.37613 -206.50959,-130.16812 -206.10333,-129.89079 L -206.10333,-129.89079 z"
       id="path3376"
       style="fill:#00ff00;fill-opacity:1;stroke:none;stroke-width:0;stroke-miterlimit:4;stroke-dasharray:none;stroke-opacity:1" />
    <path
       d="M -203.98056,-117.65088 L -202.36924,-117.65088 L -202.36924,-123.2124 L -204.12217,-122.86084 L -204.12217,-123.75928 L -202.379,-124.11084 L -201.39267,-124.11084 L -201.39267,-117.65088 L -199.78135,-117.65088 L -199.78135,-116.8208 L -203.98056,-116.8208 L -203.98056,-117.65088 z"
       id="path3378"
       style="fill:#00ff00;fill-opacity:1" />
    <path
       d="M -180.24645,-3.8110745 L -180.24645,-2.5630345 C -180.64489,-2.9341145 -181.06969,-3.2114645 -181.52086,-3.3950645 C -181.97204,-3.5786445 -182.45153,-3.6704445 -182.95934,-3.6704545 C -183.95934,-3.6704445 -184.72496,-3.3647845 -185.25621,-2.7534645 C -185.78746,-2.1421245 -186.05309,-1.2583345 -186.05309,-0.10209451 C -186.05309,1.0502555 -185.78746,1.9320855 -185.25621,2.5434155 C -184.72496,3.1547455 -183.95934,3.4604055 -182.95934,3.4604055 C -182.45153,3.4604055 -181.97204,3.3686155 -181.52086,3.1850155 C -181.06969,3.0014255 -180.64489,2.7240855 -180.24645,2.3529855 L -180.24645,3.5893155 C -180.66052,3.8705655 -181.09899,4.0815055 -181.56188,4.2221255 C -182.02477,4.3627555 -182.51403,4.4330655 -183.02965,4.4330655 C -184.35387,4.4330655 -185.39684,4.0277955 -186.15855,3.2172455 C -186.92027,2.4066955 -187.30113,1.3002555 -187.30113,-0.10209451 C -187.30113,-1.5083345 -186.92027,-2.6167345 -186.15855,-3.4272845 C -185.39684,-4.2378245 -184.35387,-4.6430945 -183.02965,-4.6431045 C -182.50622,-4.6430945 -182.01305,-4.5737645 -181.55016,-4.4351045 C -181.08727,-4.2964245 -180.6527,-4.0884145 -180.24645,-3.8110745 L -180.24645,-3.8110745 z"
       id="path3380"
       style="fill:#00ff00;fill-opacity:1" />
    <path
       d="M -176.92207,1.5263455 C -177.42988,1.5263555 -177.81156,1.7761855 -178.06709,2.2758555 C -178.32262,2.7755355 -178.45039,3.5266755 -178.45039,4.5292755 C -178.45039,5.5286255 -178.32262,6.2781355 -178.06709,6.7778055 C -177.81156,7.2774855 -177.42988,7.5273255 -176.92207,7.5273255 C -176.41101,7.5273255 -176.0277,7.2774855 -175.77217,6.7778055 C -175.51664,6.2781355 -175.38887,5.5286255 -175.38887,4.5292755 C -175.38887,3.5266755 -175.51664,2.7755355 -175.77217,2.2758555 C -176.0277,1.7761855 -176.41101,1.5263555 -176.92207,1.5263455 L -176.92207,1.5263455 z M -176.92207,0.74509549 C -176.10502,0.74510549 -175.48083,1.0681855 -175.04951,1.7143355 C -174.6182,2.3604955 -174.40254,3.2988055 -174.40254,4.5292755 C -174.40254,5.7564855 -174.6182,6.6931755 -175.04951,7.3393355 C -175.48083,7.9854955 -176.10502,8.3085755 -176.92207,8.3085755 C -177.73913,8.3085755 -178.36331,7.9854955 -178.79463,7.3393355 C -179.22594,6.6931755 -179.4416,5.7564855 -179.4416,4.5292755 C -179.4416,3.2988055 -179.22594,2.3604955 -178.79463,1.7143355 C -178.36331,1.0681855 -177.73913,0.74510549 -176.92207,0.74509549 L -176.92207,0.74509549 z"
       id="path3382"
       style="fill:#00ff00;fill-opacity:1" />
    <path
       d="M -100.44561,-40.204558 L -100.44561,-38.956508 C -100.84405,-39.327598 -101.26885,-39.604938 -101.72002,-39.788538 C -102.1712,-39.972128 -102.65069,-40.063918 -103.1585,-40.063928 C -104.1585,-40.063918 -104.92412,-39.758258 -105.45537,-39.146938 C -105.98662,-38.535598 -106.25225,-37.651818 -106.25225,-36.495568 C -106.25225,-35.343218 -105.98662,-34.461388 -105.45537,-33.850058 C -104.92412,-33.238728 -104.1585,-32.933068 -103.1585,-32.933068 C -102.65069,-32.933068 -102.1712,-33.024868 -101.72002,-33.208458 C -101.26885,-33.392048 -100.84405,-33.669398 -100.44561,-34.040488 L -100.44561,-32.804158 C -100.85968,-32.522908 -101.29815,-32.311978 -101.76104,-32.171348 C -102.22393,-32.030728 -102.71319,-31.960408 -103.22881,-31.960408 C -104.55303,-31.960408 -105.596,-32.365688 -106.35771,-33.176238 C -107.11943,-33.986778 -107.50029,-35.093218 -107.50029,-36.495568 C -107.50029,-37.901818 -107.11943,-39.010208 -106.35771,-39.820768 C -105.596,-40.631298 -104.55303,-41.036578 -103.22881,-41.036588 C -102.70538,-41.036578 -102.21221,-40.967238 -101.74932,-40.828578 C -101.28643,-40.689898 -100.85186,-40.481888 -100.44561,-40.204558 L -100.44561,-40.204558 z"
       id="path3412"
       style="opacity:1" />
    <path
       d="M -99.429281,-27.575598 L -97.817951,-27.575598 L -97.817951,-33.137128 L -99.570881,-32.785558 L -99.570881,-33.683998 L -97.827711,-34.035558 L -96.841381,-34.035558 L -96.841381,-27.575598 L -95.230061,-27.575598 L -95.230061,-26.745528 L -99.429281,-26.745528 L -99.429281,-27.575598 z M -93.062091,-27.575598 L -91.450761,-27.575598 L -91.450761,-33.137128 L -93.203691,-32.785558 L -93.203691,-33.683998 L -91.460531,-34.035558 L -90.474201,-34.035558 L -90.474201,-27.575598 L -88.862871,-27.575598 L -88.862871,-26.745528 L -93.062091,-26.745528 L -93.062091,-27.575598 z M -84.756421,-33.386148 C -85.264241,-33.386138 -85.645911,-33.136308 -85.901441,-32.636638 C -86.156981,-32.136958 -86.284751,-31.385818 -86.284741,-30.383218 C -86.284751,-29.383868 -86.156981,-28.634358 -85.901441,-28.134688 C -85.645911,-27.635008 -85.264241,-27.385168 -84.756421,-27.385168 C -84.245361,-27.385168 -83.862061,-27.635008 -83.606521,-28.134688 C -83.350991,-28.634358 -83.223231,-29.383868 -83.223221,-30.383218 C -83.223231,-31.385818 -83.350991,-32.136958 -83.606521,-32.636638 C -83.862061,-33.136308 -84.245361,-33.386138 -84.756421,-33.386148 L -84.756421,-33.386148 z M -84.756421,-34.167398 C -83.939371,-34.167388 -83.315191,-33.844308 -82.883871,-33.198158 C -82.452561,-32.551998 -82.236901,-31.613688 -82.236891,-30.383218 C -82.236901,-29.156008 -82.452561,-28.219318 -82.883871,-27.573158 C -83.315191,-26.926998 -83.939371,-26.603918 -84.756421,-26.603918 C -85.573481,-26.603918 -86.197671,-26.926998 -86.628981,-27.573158 C -87.060301,-28.219318 -87.275961,-29.156008 -87.275961,-30.383218 C -87.275961,-31.613688 -87.060301,-32.551998 -86.628981,-33.198158 C -86.197671,-33.844308 -85.573481,-34.167388 -84.756421,-34.167398 L -84.756421,-34.167398 z"
       id="path3414"
       style="opacity:1" />
  </g>
  <path
     d="M 123.56522,146.91757 A 2.3903985,2.3903985 0 1 1 123.56513,146.89688"
     transform="translate(-6.67482,-104.14688)"
     id="path3405"
     style="opacity:1;fill:#00ff00;fill-opacity:1;stroke:#00ff00;stroke-width:1.20000005;stroke-linecap:round;stroke-linejoin:round;stroke-miterlimit:4;stroke-dasharray:none;stroke-opacity:1" />
  <path
     d="M 123.56522,146.91757 A 2.3903985,2.3903985 0 1 1 123.56513,146.89688"
     transform="translate(-6.674815,5.7228255)"
     id="path3407"
     style="opacity:1;fill:#00ff00;fill-opacity:1;stroke:#00ff00;stroke-width:1.20000005;stroke-linecap:round;stroke-linejoin:round;stroke-miterlimit:4;stroke-dasharray:none;stroke-opacity:1" />
  <path
     d="M 37.878623,70.976448 A 3.3097825,3.3097825 0 1 1 37.878499,70.947803"
     transform="translate(96.18116,60.552196)"
     id="path2516"
     style="opacity:1;fill:#0000ff;fill-opacity:1;stroke:#0000ff;stroke-width:1.20000005;stroke-linecap:round;stroke-linejoin:round;stroke-miterlimit:4;stroke-dasharray:none;stroke-opacity:1" />
  <path
     d="M 37.878623,70.976448 A 3.3097825,3.3097825 0 1 1 37.878499,70.947803"
     transform="translate(155.18116,60.523551)"
     id="path2512"
     style="opacity:1;fill:#0000ff;fill-opacity:1;stroke:#0000ff;stroke-width:1.20000005;stroke-linecap:round;stroke-linejoin:round;stroke-miterlimit:4;stroke-dasharray:none;stroke-opacity:1" />
  <path
     d="M 37.878623,70.976448 A 3.3097825,3.3097825 0 1 1 37.878499,70.947803"
     transform="translate(120.43116,108.02355)"
     id="path2502"
     style="opacity:1;fill:#0000ff;fill-opacity:1;stroke:#0000ff;stroke-width:1.20000005;stroke-linecap:round;stroke-linejoin:round;stroke-miterlimit:4;stroke-dasharray:none;stroke-opacity:1" />
  <path
     d="M 37.878623,70.976448 A 3.3097825,3.3097825 0 1 1 37.878499,70.947803"
     transform="translate(58.991084,108.08084)"
     id="path2508"
     style="opacity:1;fill:#0000ff;fill-opacity:1;stroke:#0000ff;stroke-width:1.20000005;stroke-linecap:round;stroke-linejoin:round;stroke-miterlimit:4;stroke-dasharray:none;stroke-opacity:1" />
  <path
     d="M 37.878623,70.976448 A 3.3097825,3.3097825 0 1 1 37.878499,70.947803"
     transform="translate(4.43116,108.0522)"
     id="path2498"
     style="opacity:1;fill:#0000ff;fill-opacity:1;stroke:#0000ff;stroke-width:1.20000005;stroke-linecap:round;stroke-linejoin:round;stroke-miterlimit:4;stroke-dasharray:none;stroke-opacity:1" />
  <path
     d="M 37.878623,70.976448 A 3.3097825,3.3097825 0 1 1 37.878499,70.947803"
     transform="translate(4.43116,-3.4764481)"
     id="path2496"
     style="opacity:1;fill:#0000ff;fill-opacity:1;stroke:#0000ff;stroke-width:1.20000005;stroke-linecap:round;stroke-linejoin:round;stroke-miterlimit:4;stroke-dasharray:none;stroke-opacity:1" />
  <path
     d="M 37.878623,70.976448 A 3.3097825,3.3097825 0 1 1 37.878499,70.947803"
     transform="translate(58.991084,-3.4478032)"
     id="path2506"
     style="opacity:1;fill:#0000ff;fill-opacity:1;stroke:#0000ff;stroke-width:1.20000005;stroke-linecap:round;stroke-linejoin:round;stroke-miterlimit:4;stroke-dasharray:none;stroke-opacity:1" />
  <path
     d="M 37.878623,70.976448 A 3.3097825,3.3097825 0 1 1 37.878499,70.947803"
     transform="translate(96.18116,-45.726448)"
     id="path2514"
     style="opacity:1;fill:#0000ff;fill-opacity:1;stroke:#0000ff;stroke-width:1.20000005;stroke-linecap:round;stroke-linejoin:round;stroke-miterlimit:4;stroke-dasharray:none;stroke-opacity:1" />
  <path
     d="M 37.878623,70.976448 A 3.3097825,3.3097825 0 1 1 37.878499,70.947803"
     transform="translate(155.18116,-45.697803)"
     id="path2510"
     style="opacity:1;fill:#0000ff;fill-opacity:1;stroke:#0000ff;stroke-width:1.20000005;stroke-linecap:round;stroke-linejoin:round;stroke-miterlimit:4;stroke-dasharray:none;stroke-opacity:1" />
  <path
     d="M 37.878623,70.976448 A 3.3097825,3.3097825 0 1 1 37.878499,70.947803"
     transform="translate(120.43116,-3.5050961)"
     id="path2500"
     style="opacity:1;fill:#0000ff;fill-opacity:1;stroke:#0000ff;stroke-width:1.20000005;stroke-linecap:round;stroke-linejoin:round;stroke-miterlimit:4;stroke-dasharray:none;stroke-opacity:1" />
  <path
     d="M 114.73913,108.6712 A 3.4936595,3.4936595 0 1 1 114.739,108.64097"
     transform="translate(3.2545319,-2.3731111)"
     id="path3409"
     style="opacity:1;fill:#ff0000;fill-opacity:1;stroke:#ff0000;stroke-width:1.20000005;stroke-linecap:round;stroke-linejoin:round;stroke-miterlimit:4;stroke-dasharray:none;stroke-opacity:1" />
</svg>
